# This file uses meters as units for non-parametric coordinates.

mtllib SmallRock04_mesh.mtl
g default
v 436.203156 122.749908 -879.130249
v 254.412445 98.039154 -938.877441
v 31.904688 136.666931 -876.365417
v -8.692528 109.003738 -661.636597
v 66.044350 146.912521 -504.843292
v 253.879791 140.462296 -401.077667
v 490.518250 126.462280 -496.826355
v 523.353699 106.889503 -701.540039
v 403.198334 222.451584 -860.058655
v 255.469650 203.130676 -918.418823
v 124.038399 186.653748 -831.581970
v 52.311066 217.406296 -672.968323
v 132.643051 163.360107 -567.550232
v 252.630981 218.051483 -464.327423
v 418.557159 176.776672 -563.265137
v 470.832245 202.255524 -700.003052
v 351.213715 274.798767 -782.143311
v 288.144592 263.728607 -824.504272
v 182.047989 275.120544 -803.476807
v 143.116196 286.868622 -690.924377
v 177.380310 234.708679 -632.350403
v 255.537064 251.662384 -573.042969
v 368.459381 250.044434 -610.704041
v 356.488434 257.792755 -707.996765
v 264.649872 301.870697 -696.258911
v 401.043884 10.437900 -844.872192
v 437.508911 58.501747 -886.007263
v 255.000061 18.328779 -916.683899
v 252.201294 42.244099 -957.837402
v 82.016769 18.328779 -845.348572
v 42.980648 30.802023 -861.294922
v 4.753178 12.898467 -668.489990
v -16.808983 43.492130 -668.489990
v 71.687973 17.830572 -537.182922
v 56.441254 42.216358 -493.334015
v 255.000061 14.777863 -474.557404
v 255.000061 31.874010 -426.258331
v 453.399689 10.579431 -538.404968
v 470.322845 39.569641 -501.441071
v 482.033722 4.825689 -694.970825
v 509.894867 60.249115 -696.002258
v 255.423431 22.846663 -699.893250
vt 0.060152 0.940906
vt 0.029613 0.866220
vt 0.063814 0.869534
vt 0.082038 0.915693
vt 0.071443 0.791735
vt 0.083076 0.823731
vt 0.138106 0.768153
vt 0.130327 0.807609
vt 0.190964 0.806467
vt 0.168362 0.823829
vt 0.215958 0.876356
vt 0.188433 0.872670
vt 0.191511 0.954285
vt 0.167485 0.931168
vt 0.125851 0.978382
vt 0.125131 0.943373
vt 0.093194 0.880574
vt 0.104520 0.899131
vt 0.099239 0.850618
vt 0.125509 0.839887
vt 0.145609 0.845413
vt 0.158798 0.873034
vt 0.148075 0.907970
vt 0.123270 0.904159
vt 0.125422 0.874757
vt 0.194480 0.557004
vt 0.040370 0.955468
vt 0.126376 0.995777
vt 0.226362 0.622349
vt 0.131421 0.522659
vt 0.004628 0.866294
vt 0.053094 0.552265
vt 0.049702 0.766587
vt 0.018929 0.630705
vt 0.137011 0.746320
vt 0.046426 0.689277
vt 0.220134 0.781856
vt 0.127823 0.719047
vt 0.253079 0.874657
vt 0.215057 0.689654
vt 0.214167 0.971004
vt 0.128850 0.618350
vt 0.253082 0.620297
vt 0.226307 0.708992
vt 0.127605 0.741999
vt 0.037050 0.710754
vt 0.002526 0.630920
vt 0.034950 0.544229
vt 0.130785 0.501341
vt 0.216809 0.533326
vn 0.671426 0.246829 -0.698758
vn -0.044747 0.235190 -0.970919
vn -0.036910 0.530692 -0.846761
vn 0.557984 0.567944 -0.605057
vn -0.709641 0.362330 -0.604258
vn -0.525956 0.666753 -0.528025
vn -0.918109 0.391336 0.062708
vn -0.634499 0.771501 0.046883
vn -0.632303 0.384584 0.672523
vn -0.465229 0.781667 0.415402
vn 0.014907 0.342800 0.939290
vn 0.009100 0.866819 0.498541
vn 0.691118 0.274628 0.668532
vn 0.508936 0.772073 0.380642
vn 0.960494 0.259769 -0.099857
vn 0.747719 0.662533 -0.044344
vn -0.016093 0.889285 -0.457071
vn 0.353247 0.916076 -0.189793
vn -0.353443 0.831189 -0.429189
vn -0.452971 0.890633 0.039884
vn -0.374583 0.772719 0.512438
vn -0.060008 0.907222 0.416349
vn 0.406813 0.857619 0.314633
vn 0.424373 0.900758 0.092426
vn 0.036153 0.994378 0.099528
vn 0.135117 -0.979546 -0.149108
vn 0.655196 -0.303335 -0.691886
vn 0.930197 -0.354163 -0.096449
vn 0.195303 -0.979719 -0.044809
vn 0.014200 -0.987287 -0.158315
vn -0.054924 -0.282416 -0.957718
vn -0.058864 -0.994678 -0.084566
vn -0.729424 -0.262369 -0.631746
vn -0.120227 -0.992728 0.006087
vn -0.978492 -0.203005 0.036642
vn -0.090544 -0.992496 0.082178
vn -0.624838 -0.255713 0.737691
vn -0.014062 -0.993485 0.113090
vn -0.012320 -0.374167 0.927280
vn 0.143744 -0.985487 0.090299
vn 0.592784 -0.410663 0.692793
vn -0.019232 -0.999813 -0.001902
s 1
g SmallRock04_mesh SmallRock04 SmallRocks
usemtl lambert13SG
f 1/1/1 2/2/2 10/3/3 9/4/4
f 2/2/2 3/5/5 11/6/6 10/3/3
f 3/5/5 4/7/7 12/8/8 11/6/6
f 4/7/7 5/9/9 13/10/10 12/8/8
f 5/9/9 6/11/11 14/12/12 13/10/10
f 6/11/11 7/13/13 15/14/14 14/12/12
f 7/13/13 8/15/15 16/16/16 15/14/14
f 8/15/15 1/1/1 9/4/4 16/16/16
f 9/4/4 10/3/3 18/17/17 17/18/18
f 10/3/3 11/6/6 19/19/19 18/17/17
f 11/6/6 12/8/8 20/20/20 19/19/19
f 12/8/8 13/10/10 21/21/21 20/20/20
f 13/10/10 14/12/12 22/22/22 21/21/21
f 14/12/12 15/14/14 23/23/23 22/22/22
f 15/14/14 16/16/16 24/24/24 23/23/23
f 16/16/16 9/4/4 17/18/18 24/24/24
f 25/25/25 18/17/17 19/19/19 20/20/20
f 25/25/25 20/20/20 21/21/21 22/22/22
f 25/25/25 22/22/22 23/23/23 24/24/24
f 25/25/25 24/24/24 17/18/18 18/17/17
f 26/26/26 27/50/27 41/43/28 40/29/29
f 27/50/27 26/26/26 28/30/30 29/49/31
f 29/49/31 28/30/30 30/32/32 31/48/33
f 31/48/33 30/32/32 32/34/34 33/47/35
f 33/47/35 32/34/34 34/36/36 35/46/37
f 35/46/37 34/36/36 36/38/38 37/45/39
f 37/45/39 36/38/38 38/40/40 39/44/41
f 39/44/41 38/40/40 40/29/29 41/43/28
f 27/27/27 29/31/31 2/2/2 1/1/1
f 29/31/31 31/33/33 3/5/5 2/2/2
f 31/33/33 33/35/35 4/7/7 3/5/5
f 33/35/35 35/37/37 5/9/9 4/7/7
f 35/37/37 37/39/39 6/11/11 5/9/9
f 37/39/39 39/41/41 7/13/13 6/11/11
f 39/41/41 41/28/28 8/15/15 7/13/13
f 41/28/28 27/27/27 1/1/1 8/15/15
f 28/30/30 42/42/42 32/34/34 30/32/32
f 32/34/34 42/42/42 36/38/38 34/36/36
f 28/30/30 26/26/26 40/29/29 42/42/42
f 36/38/38 42/42/42 40/29/29 38/40/40
