# This file uses meters as units for non-parametric coordinates.

mtllib SmallRock01_collider.mtl
g default
v 105.519440 6.339879 25.233093
v 151.804825 6.083384 22.860266
v 90.329231 21.191034 26.202848
v 163.510345 25.244308 31.044998
v 101.726036 21.325779 -25.003860
v 142.401260 24.456633 -17.681988
v 106.408653 5.455965 -19.482176
v 148.414307 5.395864 -25.937887
v 85.217384 21.758127 0.477385
v 125.239342 2.781207 -26.734646
v 163.103958 5.804619 -0.341088
v 105.500664 1.424745 0.161459
v 129.651810 3.648944 34.846615
v 121.189888 24.957802 45.446636
v 169.316986 23.828259 0.717069
v 125.528618 21.148447 -33.937420
v 124.951431 35.337563 0.168564
v 129.734146 -0.166838 -0.069412
v 100.210236 12.852637 32.047962
v 125.826752 10.652884 44.075871
v 164.888519 10.475705 26.540621
v 95.598564 9.760530 -30.010185
v 125.124374 8.653293 -40.610573
v 153.717117 8.984595 -33.049301
v 176.464935 9.970371 -0.480817
v 88.791313 9.463501 0.318978
vt 0.670365 0.818474
vt 0.692618 0.855523
vt 0.627327 0.860711
vt 0.633226 0.796605
vt 0.677054 0.912409
vt 0.625284 0.926312
vt 0.582155 0.901305
vt 0.561032 0.858656
vt 0.580940 0.817932
vt 0.564767 0.692717
vt 0.546284 0.639070
vt 0.620505 0.627733
vt 0.620198 0.690905
vt 0.548913 0.574014
vt 0.621946 0.535668
vt 0.686348 0.567649
vt 0.715616 0.629907
vt 0.690180 0.695441
vt 0.713453 0.718020
vt 0.620654 0.744943
vt 0.748124 0.640381
vt 0.699177 0.528170
vt 0.622473 0.495485
vt 0.533542 0.726335
vt 0.503043 0.639705
vt 0.527659 0.555646
vt 0.624531 0.997188
vt 0.528741 0.942603
vt 0.507112 0.849959
vt 0.553917 0.769926
vt 0.638761 0.747761
vt 0.699879 0.971031
vt 0.748007 0.868978
vt 0.712323 0.791671
vn -0.520466 0.802489 0.291763
vn -0.037640 0.868764 0.493794
vn -0.033789 0.999070 -0.026782
vn -0.550992 0.834184 -0.023320
vn 0.353829 0.839831 0.411689
vn 0.453121 0.887475 -0.084082
vn 0.328620 0.821547 -0.465908
vn -0.013422 0.827626 -0.561120
vn -0.393351 0.799062 -0.454725
vn -0.224445 -0.956537 -0.186179
vn -0.000713 -0.977805 -0.209517
vn 0.042540 -0.999004 0.013460
vn -0.239157 -0.970367 0.034528
vn 0.183536 -0.965050 -0.187065
vn 0.230205 -0.973123 -0.006075
vn 0.219062 -0.952617 0.211030
vn 0.037488 -0.955287 0.293295
vn -0.278343 -0.928389 0.246208
vn -0.800596 -0.598835 -0.021031
vn -0.565427 -0.513619 0.645359
vn 0.073466 -0.396521 0.915081
vn 0.680663 -0.360268 0.637891
vn 0.964185 -0.009012 -0.265078
vn -0.671275 -0.356834 -0.649661
vn 0.005114 -0.085856 -0.996294
vn 0.602281 0.141197 -0.785698
s 1
g SmallRock01_collider SmallRock01 SmallRocks
usemtl initialShadingGroup
f 3/1/1 14/2/2 17/3/3 9/4/4
f 14/2/2 4/5/5 15/6/6 17/3/3
f 17/3/3 15/6/6 6/7/7 16/8/8
f 9/4/4 17/3/3 16/8/8 5/9/9
f 7/10/10 10/11/11 18/12/12 12/13/13
f 10/11/11 8/14/14 11/15/15 18/12/12
f 18/12/12 11/15/15 2/16/16 13/17/17
f 12/13/13 18/12/12 13/17/17 1/18/18
f 26/31/19 19/34/20 3/1/1 9/4/4
f 19/34/20 20/33/21 14/2/2 3/1/1
f 20/33/21 21/32/22 4/5/5 14/2/2
f 21/32/22 25/27/23 15/6/6 4/5/5
f 22/30/24 26/31/19 9/4/4 5/9/9
f 23/29/25 22/30/24 5/9/9 16/8/8
f 24/28/26 23/29/25 16/8/8 6/7/7
f 25/27/23 24/28/26 6/7/7 15/6/6
f 1/18/18 13/17/17 20/21/21 19/19/20
f 13/17/17 2/16/16 21/22/22 20/21/21
f 23/25/25 24/26/26 8/14/14 10/11/11
f 22/24/24 23/25/25 10/11/11 7/10/10
f 2/16/16 11/15/15 25/23/23 21/22/22
f 11/15/15 8/14/14 24/26/26 25/23/23
f 7/10/10 12/13/13 26/20/19 22/24/24
f 12/13/13 1/18/18 19/19/20 26/20/19
