# This file uses meters as units for non-parametric coordinates.

mtllib SmallRock04_collider.mtl
g default
v 412.047394 216.620056 -870.518616
v 255.491623 203.628494 -920.808411
v 30.069878 142.535751 -881.554443
v 1.337074 166.103485 -669.286194
v 73.547287 163.460220 -501.510895
v 253.802902 161.822754 -407.798157
v 493.695740 128.210938 -494.926147
v 521.751404 117.657013 -704.182495
v 372.586273 271.188293 -783.170166
v 288.493317 264.832397 -825.954712
v 162.002579 255.036530 -805.270447
v 126.846992 286.541687 -691.860840
v 176.621384 235.522278 -631.879333
v 255.654251 222.919846 -475.841431
v 369.611237 251.011398 -610.016479
v 461.135681 213.683258 -717.017700
v 264.763641 304.125488 -696.426941
v 402.521606 9.008797 -846.526367
v 439.351288 57.553284 -888.072754
v 249.718994 11.117675 -913.038147
v 252.190582 41.133057 -960.621216
v 80.304214 16.978584 -847.007507
v 40.635147 29.204378 -865.424500
v 2.267986 4.713056 -668.380310
v -24.683052 43.753681 -667.417175
v 69.872131 16.475395 -535.760193
v 54.472942 41.105042 -491.472778
v 255.017334 13.392159 -472.508392
v 255.017334 30.659267 -423.726349
v 453.179565 5.416036 -539.291992
v 472.493347 38.431854 -499.660919
v 481.484863 1.043647 -694.308167
v 512.461121 59.318123 -696.167725
v 255.444946 -1.814625 -700.097595
vt 0.063814 0.869534
vt 0.082038 0.915693
vt 0.083076 0.823731
vt 0.130327 0.807609
vt 0.168362 0.823829
vt 0.188433 0.872670
vt 0.167485 0.931168
vt 0.125131 0.943373
vt 0.093194 0.880574
vt 0.104520 0.899131
vt 0.099239 0.850618
vt 0.125509 0.839887
vt 0.145609 0.845413
vt 0.158798 0.873034
vt 0.148075 0.907970
vt 0.123270 0.904159
vt 0.125422 0.874757
vt 0.194480 0.557004
vt 0.040370 0.955468
vt 0.126376 0.995777
vt 0.226362 0.622349
vt 0.131421 0.522659
vt 0.004628 0.866294
vt 0.053094 0.552265
vt 0.049702 0.766587
vt 0.018929 0.630705
vt 0.137011 0.746320
vt 0.046426 0.689277
vt 0.220134 0.781856
vt 0.127823 0.719047
vt 0.253079 0.874657
vt 0.215057 0.689654
vt 0.214167 0.971004
vt 0.128850 0.618350
vt 0.253082 0.620297
vt 0.226307 0.708992
vt 0.127605 0.741999
vt 0.037050 0.710754
vt 0.002526 0.630920
vt 0.034950 0.544229
vt 0.130785 0.501341
vt 0.216809 0.533326
vn -0.039184 0.428164 -0.902851
vn 0.563452 0.415112 -0.714286
vn 0.642519 -0.092035 -0.760723
vn 0.004368 -0.095843 -0.995387
vn -0.661895 0.366106 -0.654112
vn -0.703242 -0.132025 -0.698584
vn -0.858037 0.508833 0.069731
vn -0.993377 -0.088154 0.073701
vn -0.601278 0.456432 0.655847
vn -0.672597 -0.147606 0.725139
vn 0.014541 0.438441 0.898642
vn -0.018366 -0.312428 0.949764
vn 0.678103 0.364185 0.638393
vn 0.597020 -0.361780 0.716018
vn 0.936236 0.333864 -0.109526
vn 0.957943 -0.235421 -0.164079
vn -0.012918 0.909157 -0.416254
vn 0.414392 0.883813 -0.217152
vn -0.384006 0.837833 -0.388039
vn -0.472863 0.880881 0.021209
vn -0.361203 0.832660 0.419773
vn 0.056425 0.876791 0.477550
vn 0.435007 0.846286 0.307520
vn 0.658891 0.751638 0.030045
vn 0.039998 0.994593 0.095841
vn 0.203378 -0.956301 -0.210060
vn 0.251324 -0.967249 -0.035590
vn 0.007744 -0.976683 -0.214547
vn -0.126675 -0.980023 -0.153323
vn -0.180751 -0.983381 0.017046
vn -0.133572 -0.978224 0.158862
vn -0.009942 -0.984759 0.173640
vn 0.186262 -0.972550 0.139471
vn -0.017547 -0.999845 -0.001666
s 1
g SmallRock04_collider SmallRock04 SmallRocks
usemtl initialShadingGroup
f 2/1/1 1/2/2 19/19/3 21/23/4
f 3/3/5 2/1/1 21/23/4 23/25/6
f 4/4/7 3/3/5 23/25/6 25/27/8
f 5/5/9 4/4/7 25/27/8 27/29/10
f 6/6/11 5/5/9 27/29/10 29/31/12
f 7/7/13 6/6/11 29/31/12 31/33/14
f 8/8/15 7/7/13 31/33/14 33/20/16
f 1/2/2 8/8/15 33/20/16 19/19/3
f 1/2/2 2/1/1 10/9/17 9/10/18
f 2/1/1 3/3/5 11/11/19 10/9/17
f 3/3/5 4/4/7 12/12/20 11/11/19
f 4/4/7 5/5/9 13/13/21 12/12/20
f 5/5/9 6/6/11 14/14/22 13/13/21
f 6/6/11 7/7/13 15/15/23 14/14/22
f 7/7/13 8/8/15 16/16/24 15/15/23
f 8/8/15 1/2/2 9/10/18 16/16/24
f 17/17/25 10/9/17 11/11/19 12/12/20
f 17/17/25 12/12/20 13/13/21 14/14/22
f 17/17/25 14/14/22 15/15/23 16/16/24
f 17/17/25 16/16/24 9/10/18 10/9/17
f 18/18/26 19/42/3 33/35/16 32/21/27
f 19/42/3 18/18/26 20/22/28 21/41/4
f 21/41/4 20/22/28 22/24/29 23/40/6
f 23/40/6 22/24/29 24/26/30 25/39/8
f 25/39/8 24/26/30 26/28/31 27/38/10
f 27/38/10 26/28/31 28/30/32 29/37/12
f 29/37/12 28/30/32 30/32/33 31/36/14
f 31/36/14 30/32/33 32/21/27 33/35/16
f 20/22/28 34/34/34 24/26/30 22/24/29
f 24/26/30 34/34/34 28/30/32 26/28/31
f 20/22/28 18/18/26 32/21/27 34/34/34
f 28/30/32 34/34/34 32/21/27 30/32/33
