# This file uses meters as units for non-parametric coordinates.

mtllib SmallRock02_collider.mtl
g default
v 120.425217 17.034309 182.911072
v 216.796280 12.788964 185.656097
v 125.787468 87.689911 176.944153
v 209.612793 69.014214 186.833374
v 130.045822 94.873650 108.488518
v 211.094315 58.879955 91.594986
v 110.472641 33.187653 85.165184
v 204.410141 17.217630 93.041496
v 110.205383 95.654350 139.924881
v 159.898682 8.315645 91.230019
v 233.409622 5.938480 139.924881
v 102.660500 13.068465 139.924881
v 168.533737 10.185800 203.508163
v 159.898682 74.833565 197.609543
v 214.982742 77.880974 138.034454
v 159.898682 96.093285 107.482498
v 159.898682 103.718994 140.621445
v 161.830978 -4.110266 139.924881
v 103.328651 59.869232 189.372833
v 162.222672 48.828152 230.308823
v 228.100525 36.779716 203.660919
v 117.596802 67.257515 89.667854
v 159.439011 30.435730 71.932274
v 216.847473 27.669266 80.134491
v 250.821579 28.363358 137.225632
v 89.229721 61.800385 133.403244
vt 0.904583 0.827163
vt 0.928980 0.857181
vt 0.870491 0.859149
vt 0.873627 0.822254
vt 0.915687 0.901425
vt 0.868930 0.903878
vt 0.838958 0.890560
vt 0.844618 0.859840
vt 0.849044 0.840959
vt 0.809799 0.683677
vt 0.794486 0.638064
vt 0.864121 0.621399
vt 0.862946 0.669300
vt 0.792242 0.573163
vt 0.864917 0.553144
vt 0.928877 0.569412
vt 0.953370 0.620921
vt 0.929682 0.681279
vt 0.958123 0.718315
vt 0.864223 0.742650
vt 0.995867 0.642965
vt 0.942512 0.532549
vt 0.862415 0.503755
vt 0.775630 0.725666
vt 0.749599 0.643252
vt 0.767723 0.548851
vt 0.870498 0.993083
vt 0.776599 0.950164
vt 0.753057 0.848896
vt 0.793502 0.767232
vt 0.876466 0.743312
vt 0.945278 0.972173
vt 0.990479 0.870517
vt 0.957099 0.788010
vn -0.336039 0.813531 0.474601
vn 0.092190 0.820978 0.563468
vn 0.217283 0.971292 0.096850
vn -0.559134 0.827074 0.057592
vn 0.521408 0.753041 0.401327
vn 0.627316 0.778714 -0.008870
vn 0.469948 0.586352 -0.659803
vn 0.199825 0.772412 -0.602868
vn -0.279035 0.748871 -0.601108
vn -0.630047 -0.529198 -0.568323
vn -0.114436 -0.879739 -0.461480
vn -0.076130 -0.996261 -0.040845
vn -0.687893 -0.725398 -0.024513
vn 0.252400 -0.868826 -0.425952
vn 0.403996 -0.914750 -0.004336
vn 0.335981 -0.841927 0.422228
vn -0.091883 -0.818207 0.567534
vn -0.558331 -0.687596 0.464197
vn -0.989807 0.133916 -0.048470
vn -0.780064 0.063868 0.622432
vn -0.100472 0.037570 0.994230
vn 0.720644 0.130883 0.680839
vn 0.991230 0.116775 -0.061859
vn -0.543398 0.304339 -0.782366
vn -0.007457 0.106262 -0.994310
vn 0.547514 0.138754 -0.825213
s 1
g SmallRock02_collider SmallRock02 SmallRocks
usemtl initialShadingGroup
f 3/1/1 14/2/2 17/3/3 9/4/4
f 14/2/2 4/5/5 15/6/6 17/3/3
f 17/3/3 15/6/6 6/7/7 16/8/8
f 9/4/4 17/3/3 16/8/8 5/9/9
f 7/10/10 10/11/11 18/12/12 12/13/13
f 10/11/11 8/14/14 11/15/15 18/12/12
f 18/12/12 11/15/15 2/16/16 13/17/17
f 12/13/13 18/12/12 13/17/17 1/18/18
f 26/31/19 19/34/20 3/1/1 9/4/4
f 19/34/20 20/33/21 14/2/2 3/1/1
f 20/33/21 21/32/22 4/5/5 14/2/2
f 21/32/22 25/27/23 15/6/6 4/5/5
f 22/30/24 26/31/19 9/4/4 5/9/9
f 23/29/25 22/30/24 5/9/9 16/8/8
f 24/28/26 23/29/25 16/8/8 6/7/7
f 25/27/23 24/28/26 6/7/7 15/6/6
f 1/18/18 13/17/17 20/21/21 19/19/20
f 13/17/17 2/16/16 21/22/22 20/21/21
f 23/25/25 24/26/26 8/14/14 10/11/11
f 22/24/24 23/25/25 10/11/11 7/10/10
f 2/16/16 11/15/15 25/23/23 21/22/22
f 11/15/15 8/14/14 24/26/26 25/23/23
f 7/10/10 12/13/13 26/20/19 22/24/24
f 12/13/13 1/18/18 19/19/20 26/20/19
