# This file uses meters as units for non-parametric coordinates.

mtllib SmallRock02_mesh.mtl
g default
v 127.887062 18.708839 185.183319
v 205.541397 13.173246 181.669479
v 126.226524 87.332603 176.652756
v 209.221893 68.841812 186.444061
v 131.651245 97.377808 110.843269
v 194.765335 79.701347 110.797150
v 128.545471 15.884660 104.533524
v 204.070755 17.558065 93.580811
v 110.798714 95.218185 140.000000
v 160.000000 8.744218 91.787270
v 224.772430 6.230149 140.000000
v 127.391045 3.045211 140.000000
v 168.549561 10.595856 202.953751
v 160.000000 74.603546 197.113541
v 212.694672 78.821060 140.000000
v 160.000000 96.206070 110.393890
v 160.000000 103.202980 140.689667
v 168.038910 0.000000 140.000000
v 119.104141 39.175919 197.324158
v 102.884102 59.680321 186.285080
v 162.300980 33.695095 219.470032
v 160.492828 52.534092 222.344543
v 224.182159 35.691765 200.274872
v 227.526581 20.741751 188.480621
v 119.684288 70.295715 90.459717
v 110.212837 32.104515 85.316742
v 161.146149 64.237572 89.883430
v 159.544876 30.645292 72.680595
v 216.384949 28.857410 80.801598
v 219.357422 52.594738 93.466339
v 246.841675 23.894938 139.926025
v 238.605698 46.277695 140.141098
v 99.359497 33.199623 139.926025
v 93.422447 61.897812 140.141098
vt 0.904583 0.827163
vt 0.928980 0.857181
vt 0.870491 0.859149
vt 0.873627 0.822254
vt 0.915687 0.901425
vt 0.868930 0.903878
vt 0.838958 0.890560
vt 0.844618 0.859840
vt 0.849044 0.840959
vt 0.809799 0.683677
vt 0.794486 0.638064
vt 0.864121 0.621399
vt 0.862946 0.669300
vt 0.792242 0.573163
vt 0.864917 0.553144
vt 0.928877 0.569412
vt 0.953370 0.620921
vt 0.929682 0.681279
vt 0.958123 0.718315
vt 0.923315 0.791007
vt 0.876553 0.782944
vt 0.864223 0.742650
vt 0.995867 0.642965
vt 0.966930 0.857793
vt 0.942512 0.532549
vt 0.942817 0.942002
vt 0.862415 0.503755
vt 0.869414 0.952639
vt 0.824459 0.816286
vt 0.775630 0.725666
vt 0.806026 0.854257
vt 0.749599 0.643252
vt 0.810754 0.930173
vt 0.767723 0.548851
vt 0.870498 0.993083
vt 0.776599 0.950164
vt 0.753057 0.848896
vt 0.793502 0.767232
vt 0.876466 0.743312
vt 0.945278 0.972173
vt 0.990479 0.870517
vt 0.957099 0.788010
vn -0.323328 0.813272 0.483785
vn 0.091046 0.803504 0.588296
vn 0.176772 0.967968 0.178296
vn -0.580471 0.813250 0.040960
vn 0.498571 0.741865 0.448401
vn 0.581217 0.808262 0.094342
vn 0.437422 0.753206 -0.491267
vn 0.179576 0.834824 -0.520404
vn -0.347543 0.792257 -0.501540
vn -0.412930 -0.849798 -0.327616
vn -0.023375 -0.907295 -0.419845
vn 0.005773 -0.999981 -0.002339
vn -0.423918 -0.904150 0.052964
vn 0.247820 -0.876760 -0.412163
vn 0.311554 -0.948401 -0.058902
vn 0.238213 -0.910504 0.337988
vn -0.027742 -0.889074 0.456922
vn -0.472804 -0.799054 0.371441
vn -0.678807 -0.399664 0.616027
vn -0.807508 0.231432 0.542560
vn -0.973390 0.222420 -0.055139
vn -0.914940 -0.403130 -0.019255
vn -0.107056 -0.452502 0.885314
vn -0.009911 0.362159 0.932064
vn 0.709514 -0.438619 0.551546
vn 0.653074 0.296704 0.696750
vn 0.924642 -0.368060 -0.097821
vn 0.890440 0.454152 -0.029378
vn -0.550601 0.395401 -0.735185
vn -0.689228 -0.195671 -0.697623
vn 0.071794 0.474589 -0.877275
vn -0.021924 -0.059582 -0.997983
vn 0.574930 0.511750 -0.638410
vn 0.505932 -0.075084 -0.859300
s 1
g SmallRock02_mesh SmallRock02 SmallRocks
usemtl lambert13SG
f 3/1/1 14/2/2 17/3/3 9/4/4
f 14/2/2 4/5/5 15/6/6 17/3/3
f 17/3/3 15/6/6 6/7/7 16/8/8
f 9/4/4 17/3/3 16/8/8 5/9/9
f 7/10/10 10/11/11 18/12/12 12/13/13
f 10/11/11 8/14/14 11/15/15 18/12/12
f 18/12/12 11/15/15 2/16/16 13/17/17
f 12/13/13 18/12/12 13/17/17 1/18/18
f 19/42/19 20/20/20 34/21/21 33/39/22
f 20/20/20 19/42/19 21/41/23 22/24/24
f 22/24/24 21/41/23 24/40/25 23/26/26
f 23/26/26 24/40/25 31/35/27 32/28/28
f 25/29/29 26/38/30 33/39/22 34/21/21
f 26/38/30 25/29/29 27/31/31 28/37/32
f 28/37/32 27/31/31 30/33/33 29/36/34
f 29/36/34 30/33/33 32/28/28 31/35/27
f 1/18/18 13/17/17 21/23/23 19/19/19
f 13/17/17 2/16/16 24/25/25 21/23/23
f 22/24/24 23/26/26 4/5/5 14/2/2
f 20/20/20 22/24/24 14/2/2 3/1/1
f 5/9/9 16/8/8 27/31/31 25/29/29
f 16/8/8 6/7/7 30/33/33 27/31/31
f 28/32/32 29/34/34 8/14/14 10/11/11
f 26/30/30 28/32/32 10/11/11 7/10/10
f 2/16/16 11/15/15 31/27/27 24/25/25
f 11/15/15 8/14/14 29/34/34 31/27/27
f 32/28/28 30/33/33 6/7/7 15/6/6
f 23/26/26 32/28/28 15/6/6 4/5/5
f 7/10/10 12/13/13 33/22/22 26/30/30
f 12/13/13 1/18/18 19/19/19 33/22/22
f 34/21/21 20/20/20 3/1/1 9/4/4
f 25/29/29 34/21/21 9/4/4 5/9/9
